<svg width="43" height="29" viewBox="0 0 43 29" fill="none" xmlns="http://www.w3.org/2000/svg">
<path d="M4.79995 29H3.59996C3.15814 29 2.79997 28.4686 2.79997 28.2658L2.79997 12.8481C2.79997 12.8481 2.62089 12.481 2.39997 12.481C2.17906 12.481 1.99998 12.8481 1.99998 12.8481V18.7215C1.99998 19.0421 1.87942 19.2634 1.59998 19.4557C1.22508 19.7137 0.774895 19.7137 0.399996 19.4557C0.120563 19.2634 0 19.0421 0 18.7215V9.17722C0 8.16353 0.895421 7.34177 1.99998 7.34177H3.99996L5.59994 11.3797H6.39993L7.99991 7.34177H10.3999C11.4001 7.34177 11.9999 8.62637 11.9999 9.5443V18.7215C11.9999 19.127 12.019 19.3275 11.5999 19.4557C11.3035 19.5464 10.6711 19.5979 10.3999 19.4557C10.0966 19.2967 9.99989 19.0421 9.99989 18.7215V13.2152C9.99989 13.2152 9.8208 12.8481 9.59989 12.8481C9.37898 12.8481 9.1999 13.2152 9.1999 13.2152L9.1999 28.2658C9.1999 28.6713 8.84173 29 8.39991 29H7.19992C6.78077 28.8718 6.39993 28.6713 6.39993 28.2658V20.1899C6.39993 20.1899 6.34922 19.4557 5.99993 19.4557C5.65064 19.4557 5.59994 20.1899 5.59994 20.1899V28.2658C5.59994 28.6713 5.24177 29 4.79995 29Z" fill="black" fill-opacity="0.87"/>
<path d="M9.1999 3.67089C9.1999 5.29279 8.7999 7.34177 5.59994 6.97468C3.89881 6.77954 2.79996 4.40506 3.99995 2.93671L9.1999 3.67089Z" fill="black" fill-opacity="0.87"/>
<path d="M3.19996 2.20253L4.39995 1.46835L3.99995 0C3.99995 0 6.39993 0.367089 9.59989 1.83544L8.7999 2.56962L9.1999 3.3038L3.19996 2.20253Z" fill="black" fill-opacity="0.87"/>
<path d="M5.59994 8.07595H6.39993V11.0127H5.59994V8.07595Z" fill="black" fill-opacity="0.87"/>
<path fill-rule="evenodd" clip-rule="evenodd" d="M19.5435 10.77C18.3825 11.819 17.453 12.3285 17.2625 12.02C16.8425 11.3405 14.6525 11.3485 14.2305 12.0315C14.05 12.324 14.2395 12.9425 14.6515 13.4065C15.324 14.163 15.277 14.429 14.2005 15.986C13.501 16.997 13 18.441 13 19.445C13 22.177 14.0805 27.714 14.6925 28.1175C15.804 28.85 17.9875 28.5065 18.616 27.5C19.201 26.5635 19.782 26.5 27.75 26.5C35.718 26.5 36.299 26.5635 36.884 27.5C37.5915 28.633 40.1955 28.8795 40.845 27.875C41.3375 27.1135 42.406 21.3515 42.4605 19.1635C42.486 18.1385 42.036 17.025 41.1895 16.0195C40.0125 14.6205 39.955 14.375 40.6245 13.606C41.034 13.135 41.2675 12.469 41.143 12.125C40.8695 11.3695 38.688 11.291 38.2375 12.02C38.047 12.3285 37.1175 11.819 35.9565 10.77L33.997 9H21.503L19.5435 10.77ZM37.75 14.475L28.1075 14.4875C18.7475 14.4995 18.48 14.472 18.979 13.539C19.262 13.01 20.088 12.11 20.8145 11.539C21.976 10.625 22.821 10.5 27.837 10.5H33.5385L37.75 14.475ZM18.75 18.4455C18.75 20.126 17.271 20.985 16.208 19.9225C14.963 18.677 15.7235 16.9 17.418 17.096C18.4465 17.215 18.75 17.5225 18.75 18.4455ZM39.535 17.792C40.423 18.862 39.5295 20.25 37.9525 20.25C36.728 20.25 36.1595 19.1085 36.692 17.721C37.06 16.7615 38.714 16.803 39.535 17.792ZM18.145 23.622L20.25 24.744L18.648 24.902C16.773 25.087 15 24.2755 15 23.2325C15 22.226 15.6855 22.311 18.145 23.622ZM40.5 23.2325C40.5 24.219 38.924 25 36.933 25C35.127 25 35.3515 24.5285 37.75 23.2845C39.6315 22.3085 40.5 22.292 40.5 23.2325Z" fill="black" fill-opacity="0.87"/>
</svg>
