<svg width="35" height="29" viewBox="0 0 35 29" fill="none" xmlns="http://www.w3.org/2000/svg">
<path fill-rule="evenodd" clip-rule="evenodd" d="M23.0207 0.9345C22.3182 1.7105 22.1992 2.75 22.3182 7.0595L22.4612 12.25L28.5862 12.3905L34.7112 12.531V7.093C34.7112 0.114 34.6092 0 28.3742 0C24.6067 0 23.7272 0.1535 23.0207 0.9345ZM32.1162 4.125L32.2717 6H28.4912H24.7112V4.3335C24.7112 3.4165 24.8702 2.5075 25.0652 2.313C25.2597 2.1185 26.8907 2.0245 28.6902 2.1045L31.9612 2.25L32.1162 4.125ZM10.8762 3.867C8.51316 4.034 8.13466 4.2405 6.46766 6.2745C4.87716 8.216 4.39566 8.5 2.69516 8.5C0.163663 8.5 -0.870837 9.983 0.847163 11.1485C1.74366 11.757 1.83916 12.031 1.33616 12.5525C0.900163 13.0045 0.711163 15.209 0.711163 19.85V26.5H4.00816C6.88416 26.5 7.33816 26.3725 7.56616 25.5C7.81416 24.5515 8.24816 24.5 16.0197 24.5H24.2112L24.2057 21.125C24.1977 16.201 23.7467 14 22.7457 14C21.5652 14 20.7112 13 20.7112 11.6175V10.435L12.9037 10.792C4.07866 11.196 4.28066 11.3315 7.79266 7.366L9.46116 5.4815L15.0862 5.409C20.1842 5.343 20.7112 5.25 20.7112 4.418C20.7112 3.603 20.3037 3.5105 17.0862 3.5925C15.0922 3.6435 12.2977 3.767 10.8762 3.867ZM8.58616 14.628C8.93016 14.9 9.21116 15.4325 9.21116 15.811C9.21116 16.3195 8.42866 16.5 6.22866 16.5C3.74766 16.5 3.15566 16.33 2.70566 15.4895C2.40816 14.934 2.30466 14.2535 2.47516 13.9775C2.84366 13.381 7.65816 13.893 8.58616 14.628ZM25.4762 14.875C25.6857 15.631 25.9502 18.8935 26.0637 22.125C26.1772 25.3565 26.4817 28 26.7407 28H27.2112L27.2112 22.25L27.2112 16.5H27.7112C28.0167 16.5 28.2112 18.8235 28.2112 22.4705V28.1855H28.3758C31.5436 28.1855 31.1447 26.1205 31.3242 20.375L31.5387 13.5H28.3167H25.0947L25.4762 14.875Z" fill="black" fill-opacity="0.87"/>
</svg>
