<svg width="30" height="30" viewBox="0 0 30 30" fill="none" xmlns="http://www.w3.org/2000/svg">
<path d="M25.87 4.89125C25.545 3.9325 24.635 3.25 23.5625 3.25H19.5V0H9.75V3.25H5.6875C4.615 3.25 3.72125 3.9325 3.38 4.89125L0 14.625V27.625C0 28.5187 0.73125 29.25 1.625 29.25H3.25C4.14375 29.25 4.875 28.5187 4.875 27.625V26H24.375V27.625C24.375 28.5187 25.1063 29.25 26 29.25H27.625C28.5187 29.25 29.25 28.5187 29.25 27.625V14.625L25.87 4.89125ZM5.6875 21.125C4.33875 21.125 3.25 20.0362 3.25 18.6875C3.25 17.3388 4.33875 16.25 5.6875 16.25C7.03625 16.25 8.125 17.3388 8.125 18.6875C8.125 20.0362 7.03625 21.125 5.6875 21.125ZM23.5625 21.125C22.2138 21.125 21.125 20.0362 21.125 18.6875C21.125 17.3388 22.2138 16.25 23.5625 16.25C24.9112 16.25 26 17.3388 26 18.6875C26 20.0362 24.9112 21.125 23.5625 21.125ZM3.25 13L5.6875 5.6875H23.5625L26 13H3.25Z" fill="black" fill-opacity="0.87"/>
</svg>
